<svg width="15" height="15" viewBox="0 0 15 15" fill="none" xmlns="http://www.w3.org/2000/svg">
<path d="M13.7574 2.36542C12.1262 0.813149 9.47106 0.813149 7.83932 2.36506L7.50003 2.68733L7.16109 2.36521C5.52917 0.813091 2.87443 0.813267 1.24251 2.36521C0.44124 3.12734 0 4.13823 0 5.21137C0 6.28487 0.44124 7.29558 1.24263 8.05803L7.13771 13.6547C7.23911 13.7512 7.36966 13.7993 7.5 13.7993C7.63034 13.7993 7.76071 13.751 7.86229 13.6545L13.7574 8.05803C14.5586 7.29576 15 6.2849 15 5.21155C15 4.13823 14.5586 3.12751 13.7574 2.36542ZM13.0321 7.29488L7.5 12.5472L1.96808 7.29505C1.37771 6.73367 1.05264 5.99366 1.05264 5.21155C1.05264 4.42944 1.37771 3.68943 1.96808 3.12804C2.58387 2.54208 3.39264 2.24928 4.20158 2.24928C5.0107 2.24928 5.81982 2.54243 6.43562 3.12839L7.13736 3.7949C7.34051 3.98805 7.65929 3.98805 7.86246 3.7949L8.56438 3.12804C9.79614 1.95628 11.8002 1.95628 13.0319 3.12804C13.6221 3.68946 13.9474 4.42944 13.9474 5.21155C13.9474 5.99366 13.6221 6.73349 13.0321 7.29488Z" fill="#696969"/>
</svg>
